# Blender v2.83.2 OBJ File: 'LOW POLY DESERT.blend'
# www.blender.org
mtllib part.mtl
o Cube.039_Cube.034
v -20.185484 -0.323077 76.418282
v -19.470102 -0.323077 74.550598
v -19.470102 0.445442 74.550598
v -18.317804 -0.323077 77.133667
v -18.317804 0.445442 77.133667
v -17.602423 -0.323077 75.265984
v -17.602423 0.445442 75.265984
v -18.617512 0.394336 75.127266
v -18.133802 0.394336 75.723709
v -18.408485 0.394336 76.440834
v -19.166880 0.394336 76.561516
v -19.650589 0.394336 75.965073
v -19.375906 0.394336 75.247940
v -18.617512 4.148190 75.127266
v -18.133802 3.918198 75.723709
v -18.408485 4.530149 76.440834
v -19.166880 4.912101 76.561516
v -19.650589 5.018337 75.965073
v -19.375906 4.530149 75.247940
v -18.408485 2.869097 76.440834
v -18.408485 2.407257 76.440834
v -18.306810 2.582890 76.175392
v -18.752171 2.542098 76.495529
v -19.637249 0.445442 76.628273
v -19.975492 0.445442 75.870049
v -20.185484 -0.141634 76.418282
v -23.189470 -1.316178 84.260910
v -23.189470 -0.547659 84.260910
v -22.474087 -1.316178 82.393227
v -22.474087 -0.547659 82.393227
v -21.321791 -1.316178 84.976295
v -21.321791 -0.547659 84.976295
v -20.606407 -1.316178 83.108612
v -20.606407 -0.547659 83.108612
v -21.621498 -0.598764 82.969894
v -21.621498 6.975480 82.969894
v -21.137789 -0.598764 83.566338
v -21.137789 6.975480 83.566338
v -21.412472 -0.598764 84.283463
v -21.412472 6.975480 84.283463
v -22.170866 -0.598764 84.404144
v -22.170866 6.975480 84.404144
v -22.654575 -0.598764 83.807701
v -22.654575 6.975480 83.807701
v -22.379890 -0.598764 83.090576
v -22.379890 6.975480 83.090576
v -23.189470 6.683496 84.260910
v -23.189470 7.452014 84.260910
v -22.474087 6.683496 82.393227
v -22.474087 7.452014 82.393227
v -21.321791 6.683496 84.976295
v -20.606407 6.683496 83.108612
v -20.606407 7.452014 83.108612
v -21.621498 4.252289 82.969894
v -21.621498 3.537048 82.969894
v -21.137789 4.025237 83.566338
v -21.412472 3.537048 84.283463
v -21.412472 4.513425 84.283463
v -22.170866 3.537048 84.404144
v -22.170866 4.513425 84.404144
v -22.654575 4.025237 83.807701
v -22.379890 3.537048 83.090576
v -22.379890 4.252289 83.090576
v -21.412472 0.889538 84.283463
v -21.412472 0.427697 84.283463
v -21.310797 0.603330 84.018021
v -21.756157 0.562538 84.338158
v -21.673981 7.452014 84.841393
v -21.321791 7.074873 84.976295
v -21.186892 7.452014 84.624100
v -26.206804 -1.316178 80.963478
v -26.206804 -0.547659 80.963478
v -26.922188 -1.316178 82.831154
v -26.922188 -0.547659 82.831154
v -28.074484 -1.316178 80.248093
v -28.074484 -0.547659 80.248093
v -28.789867 -1.316178 82.115776
v -28.789867 -0.547659 82.115776
v -27.774776 -0.598764 82.254494
v -27.774776 6.417215 82.254494
v -28.258486 -0.598764 81.658051
v -28.258486 6.511999 81.658051
v -27.983803 -0.598764 80.940918
v -27.983803 6.511999 80.940918
v -27.225410 -0.598764 80.820236
v -27.225410 6.307322 80.820236
v -26.741699 -0.598764 81.416687
v -26.741699 6.128109 81.416687
v -27.016384 -0.598764 82.133812
v -27.016384 6.064586 82.133812
v -27.774776 5.835327 82.254494
v -27.774776 3.537048 82.254494
v -28.258486 4.025237 81.658051
v -27.983803 3.537048 80.940918
v -27.983803 4.513425 80.940918
v -27.225410 3.537048 80.820236
v -27.225410 4.513425 80.820236
v -26.741699 4.025237 81.416687
v -27.016384 3.537048 82.133812
v -27.983803 2.689680 80.940918
v -27.983803 1.200214 80.940918
v -28.085478 2.403473 81.206367
v -27.640118 2.362680 80.886230
v -25.067123 -0.300442 72.406754
v -23.199444 -0.300442 73.122139
v -23.199444 0.468077 73.122139
v -25.782507 -0.300442 74.274437
v -25.782507 0.468077 74.274437
v -23.914827 -0.300442 74.989822
v -23.914827 0.468077 74.989822
v -23.896786 0.306615 73.216339
v -24.613914 0.306615 72.941650
v -23.776106 1.220479 73.974731
v -24.372553 0.990487 74.458435
v -25.089680 1.602438 74.183754
v -25.210361 1.984390 73.425362
v -24.613914 1.793060 72.941650
v -23.896786 1.602438 73.216339
v -25.210361 0.306615 73.425362
v -25.089680 0.306615 74.183754
v -24.372553 0.306615 74.458435
v -23.776106 0.306615 73.974731
v -25.277115 0.468077 72.954994
v -24.518888 0.468077 72.616753
v -25.067123 -0.118999 72.406754
vt 0.375000 0.500000
vt 0.125000 0.750000
vt 0.125000 0.500000
vt -0.000000 0.447211
vt 0.166667 0.000000
vt 0.166667 0.447211
vt 0.500000 0.447211
vt 0.500000 0.000000
vt 0.591138 0.125573
vt 0.333333 0.000000
vt 0.833333 0.392452
vt 1.000000 0.000000
vt 1.000000 0.447211
vt 0.666667 0.110993
vt 0.666667 0.000000
vt 0.333333 0.514974
vt 0.666667 0.447211
vt 0.833333 0.000000
vt 0.728359 0.131442
vt 0.666667 0.160932
vt 0.801615 0.750000
vt 0.625000 0.750000
vt 0.625000 0.500000
vt 0.625000 0.926615
vt 0.625000 1.000000
vt 0.434024 1.000000
vt 0.625000 0.250000
vt 0.375000 0.250000
vt 0.625000 0.073385
vt 0.375000 1.000000
vt 0.875000 0.500000
vt 0.875000 0.676615
vt 0.375000 0.000000
vt 0.434024 0.000000
vt 0.375000 0.750000
vt 0.625000 0.500000
vt 0.375000 0.250000
vt 0.625000 0.250000
vt 0.625000 0.750000
vt 0.375000 0.500000
vt 0.625000 1.000000
vt 0.375000 0.750000
vt 0.125000 0.750000
vt 0.125000 0.500000
vt 0.875000 0.750000
vt 0.875000 0.500000
vt -0.000000 0.447211
vt 0.166667 0.000000
vt 0.166667 0.447211
vt 0.500000 0.447211
vt 0.666667 0.582737
vt 0.500000 0.582737
vt 0.500000 0.000000
vt 0.591138 0.125573
vt 0.333333 0.514974
vt 0.833333 0.514974
vt 0.333333 0.000000
vt 0.333333 1.000000
vt -0.000000 1.000000
vt 0.166667 0.546490
vt 0.166667 1.000000
vt 1.000000 0.447211
vt 0.833333 0.000000
vt 1.000000 0.000000
vt 0.666667 0.110993
vt 0.666667 0.000000
vt 0.833333 1.000000
vt -0.000000 0.546490
vt 0.500000 1.000000
vt 0.666667 1.000000
vt 0.666667 0.447211
vt 1.000000 0.546490
vt 0.728359 0.131442
vt 0.666667 0.160932
vt 0.375000 0.000000
vt 0.625000 0.000000
vt 0.672143 0.750000
vt 0.625000 0.750000
vt 0.625000 0.702857
vt 0.875000 0.500000
vt 0.375000 0.500000
vt 0.625000 0.500000
vt 0.375000 0.750000
vt 0.502316 0.750000
vt 0.625000 0.797143
vt 0.625000 0.250000
vt 0.375000 0.250000
vt 0.625000 0.000000
vt 0.375000 0.000000
vt 0.375000 1.000000
vt 0.625000 1.000000
vt 0.875000 0.750000
vt 0.125000 0.750000
vt 0.125000 0.500000
vt 0.625000 0.500000
vt 0.375000 0.250000
vt 0.625000 0.250000
vt 0.625000 0.750000
vt 0.375000 0.500000
vt 0.625000 1.000000
vt 0.375000 0.750000
vt 0.125000 0.500000
vt 0.875000 0.500000
vt -0.000000 0.447211
vt 0.166667 0.000000
vt 0.166667 0.447211
vt 0.500000 0.447211
vt 0.666667 0.582737
vt 0.500000 0.582737
vt 0.500000 0.000000
vt 0.591138 0.125573
vt 0.833333 0.514974
vt 0.333333 0.000000
vt 0.333333 0.936888
vt 0.333333 0.514974
vt 0.166667 0.940989
vt -0.000000 0.546490
vt 0.166667 0.546490
vt 1.000000 0.447211
vt 0.833333 0.000000
vt 1.000000 0.000000
vt 0.666667 0.110993
vt 0.666667 0.000000
vt 0.833333 1.000000
vt 0.500000 0.965312
vt 0.666667 1.000000
vt 0.666667 0.447211
vt 1.000000 0.546490
vt 0.728359 0.131442
vt 0.666667 0.160932
vt 0.375000 0.000000
vt 0.625000 0.000000
vt 0.000000 0.000000
vt 0.000000 0.000000
vt 0.000000 0.000000
vt 0.000000 0.000000
vt 0.000000 0.000000
vt 0.125000 0.500000
vt 0.375000 0.750000
vt 0.125000 0.750000
vt 0.333333 0.514974
vt 0.500000 0.447211
vt 0.166667 0.447211
vt 0.666667 0.447211
vt 0.333333 0.514974
vt 0.500000 0.447211
vt 0.666667 0.447211
vt 0.833333 0.392452
vt 1.000000 0.447211
vt 1.000000 0.447211
vt 0.166667 0.447211
vt 0.833333 0.392452
vt 0.801615 0.750000
vt 0.625000 0.750000
vt 0.625000 0.500000
vt 0.625000 0.926615
vt 0.625000 1.000000
vt 0.434024 1.000000
vt 0.625000 0.250000
vt 0.375000 0.500000
vt 0.375000 0.250000
vt 0.625000 0.073385
vt 0.375000 1.000000
vt 0.875000 0.500000
vt 0.875000 0.676615
vt 0.375000 0.000000
vt 0.434024 0.000000
vt -0.000000 0.000000
vt 0.375000 1.000000
vt -0.000000 0.000000
vt 1.000000 1.000000
vt 0.375000 1.000000
vt 0.125000 0.750000
vt 0.875000 0.750000
vt -0.000000 0.000000
vt -0.000000 0.962298
vt 1.000000 0.962298
vt 0.000000 0.000000
vn 0.0000 -1.0000 0.0000
vn -0.1571 0.0000 -0.9876
vn 0.1571 0.0000 0.9876
vn -0.7767 0.0000 0.6299
vn 0.7767 0.0000 -0.6299
vn -0.9338 0.0000 -0.3577
vn 0.5547 0.7711 -0.3125
vn 0.3868 0.8672 -0.3137
vn 0.9338 -0.0000 0.3577
vn 0.1572 0.0000 0.9876
vn 0.5464 -0.4569 0.7019
vn 0.3721 0.7021 0.6071
vn 0.0000 1.0000 -0.0000
vn 0.6865 0.6616 -0.3016
vn -0.7457 0.5773 0.3326
vn 0.3577 0.0000 -0.9338
vn -0.3577 0.0000 0.9338
vn -0.1572 0.0000 -0.9876
vn -0.0930 0.8061 -0.5844
vn -0.0508 -0.9464 -0.3191
vn 0.3326 0.5774 0.7457
vn 0.0930 0.8061 0.5844
vn -0.5464 -0.4569 -0.7019
vn -0.5708 0.1306 -0.8107
vn -0.4136 -0.1833 0.8918
vn 0.1318 0.9900 0.0505
vn 0.3009 0.9527 0.0422
vn 0.2724 0.9612 -0.0443
vn 0.3137 0.8672 0.3868
vn -0.9876 0.0000 0.1572
vn 0.6299 0.0000 0.7767
vn 0.9876 0.0000 -0.1572
vn -0.6299 0.0000 -0.7767
vn 0.3016 0.6616 0.6865
vn -0.3327 0.5774 -0.7457
vn 0.2645 0.9640 0.0275
vn 0.4406 0.8636 0.2452
vn -0.9876 0.0000 0.1571
vn 0.9876 0.0000 -0.1571
usemtl SWORD
s off
f 6/1/1 1/2/1 2/3/1
f 14/4/2 13/5/2 19/6/2
f 17/7/3 11/8/3 23/9/3
f 17/7/4 12/10/4 11/8/4
f 15/11/5 8/12/5 14/13/5
f 21/14/3 11/8/3 10/15/3
f 12/10/6 19/6/6 13/5/6
f 18/16/7 17/7/7 19/6/7
f 16/17/8 19/6/8 17/7/8
f 21/14/9 9/18/9 22/19/9
f 23/9/10 20/20/10 17/7/10
f 20/20/3 16/17/3 17/7/3
f 9/18/9 15/11/9 22/19/9
f 15/11/9 16/17/9 20/20/9
f 22/19/9 15/11/9 20/20/9
f 20/20/11 23/9/11 22/19/11
f 21/14/12 22/19/12 23/9/12
f 24/21/13 5/22/13 7/23/13
f 15/11/14 14/13/14 16/17/14
f 24/24/15 25/25/15 26/26/15
f 3/27/16 6/1/16 2/28/16
f 2/28/6 25/29/6 3/27/6
f 24/24/17 26/26/17 1/30/17
f 7/23/13 3/31/13 25/32/13
f 25/32/13 24/21/13 7/23/13
f 1/33/6 26/34/6 25/29/6
f 24/24/17 4/35/17 5/22/17
f 7/23/9 4/35/9 6/1/9
f 34/36/16 29/37/16 30/38/16
f 32/39/9 33/40/9 34/36/9
f 28/41/17 31/42/17 32/39/17
f 33/40/1 27/43/1 29/44/1
f 28/45/13 34/36/13 30/46/13
f 55/47/18 45/48/18 62/49/18
f 59/50/10 58/51/10 60/52/10
f 59/50/3 41/53/3 67/54/3
f 55/47/19 61/55/19 56/56/19
f 59/50/4 43/57/4 41/53/4
f 60/52/4 44/58/4 61/55/4
f 36/59/2 63/60/2 46/61/2
f 55/62/5 37/63/5 35/64/5
f 65/65/3 41/53/3 39/66/3
f 38/67/9 58/51/9 56/56/9
f 43/57/6 62/49/6 45/48/6
f 44/58/6 63/60/6 61/55/6
f 56/56/20 63/60/20 54/68/20
f 60/52/4 61/55/4 59/50/4
f 42/69/10 58/51/10 40/70/10
f 56/56/9 58/51/9 57/71/9
f 54/72/5 38/67/5 56/56/5
f 65/65/9 37/63/9 66/73/9
f 67/54/10 64/74/10 59/50/10
f 64/74/10 57/71/10 59/50/10
f 37/63/9 56/56/9 66/73/9
f 56/56/9 57/71/9 64/74/9
f 66/73/9 56/56/9 64/74/9
f 64/74/11 67/54/11 66/73/11
f 65/65/12 66/73/12 67/54/12
f 30/38/6 27/75/6 28/76/6
f 68/77/21 69/78/21 70/79/21
f 70/79/13 50/80/13 68/77/13
f 70/79/9 52/81/9 53/82/9
f 51/83/17 69/84/17 68/85/17
f 50/86/16 52/81/16 49/87/16
f 48/88/6 49/87/6 47/89/6
f 47/90/17 68/85/17 48/91/17
f 70/79/9 69/84/9 51/83/9
f 53/82/13 50/80/13 70/79/13
f 50/80/13 48/92/13 68/77/13
f 52/81/1 47/93/1 49/94/1
f 78/95/17 73/96/17 74/97/17
f 76/98/6 77/99/6 78/95/6
f 72/100/16 75/101/16 76/98/16
f 75/101/1 73/102/1 77/99/1
f 74/103/13 76/98/13 78/95/13
f 92/104/3 89/105/3 99/106/3
f 96/107/18 95/108/18 97/109/18
f 96/107/18 85/110/18 103/111/18
f 93/112/22 92/104/22 99/106/22
f 96/107/5 87/113/5 85/110/5
f 97/109/5 88/114/5 98/115/5
f 90/116/3 91/117/3 99/118/3
f 92/119/4 81/120/4 79/121/4
f 101/122/2 85/110/2 83/123/2
f 82/124/6 95/108/6 93/112/6
f 87/113/9 99/106/9 89/105/9
f 90/116/9 98/115/9 88/114/9
f 97/109/5 98/115/5 96/107/5
f 86/125/18 95/108/18 84/126/18
f 93/112/6 95/108/6 94/127/6
f 91/128/4 82/124/4 93/112/4
f 101/122/6 81/120/6 102/129/6
f 103/111/2 100/130/2 96/107/2
f 100/130/18 94/127/18 96/107/18
f 81/120/6 93/112/6 102/129/6
f 93/112/6 94/127/6 100/130/6
f 102/129/6 93/112/6 100/130/6
f 100/130/23 103/111/23 102/129/23
f 101/122/24 102/129/24 103/111/24
f 74/97/9 71/131/9 72/132/9
f 91/117/25 93/112/25 99/118/25
f 80/133/26 84/134/26 82/135/26
f 80/133/27 88/136/27 86/137/27
f 105/138/1 107/139/1 104/140/1
f 117/141/28 116/142/28 118/143/28
f 115/144/29 118/143/29 116/142/29
f 118/143/16 112/145/16 117/141/16
f 115/144/30 119/146/30 120/147/30
f 114/148/31 122/149/31 113/150/31
f 113/150/32 111/151/32 118/143/32
f 117/141/33 119/146/33 116/142/33
f 114/148/17 120/147/17 121/152/17
f 123/153/13 108/154/13 110/155/13
f 114/148/34 113/150/34 115/144/34
f 123/156/35 124/157/35 125/158/35
f 106/159/9 109/160/9 105/161/9
f 105/161/16 124/162/16 106/159/16
f 123/156/6 125/158/6 104/163/6
f 110/155/13 106/164/13 124/165/13
f 124/165/13 123/153/13 110/155/13
f 104/166/16 125/167/16 124/162/16
f 123/156/6 107/139/6 108/154/6
f 110/155/17 107/139/17 109/160/17
f 6/1/1 4/35/1 1/2/1
f 14/4/18 8/168/18 13/5/18
f 17/7/4 18/16/4 12/10/4
f 15/11/5 9/18/5 8/12/5
f 21/14/3 23/9/3 11/8/3
f 12/10/6 18/16/6 19/6/6
f 16/17/8 14/13/8 19/6/8
f 21/14/9 10/15/9 9/18/9
f 3/27/16 7/23/16 6/1/16
f 2/28/6 1/33/6 25/29/6
f 24/24/17 1/30/17 4/35/17
f 7/23/9 5/22/9 4/35/9
f 34/36/16 33/40/16 29/37/16
f 32/39/9 31/42/9 33/40/9
f 28/41/17 27/169/17 31/42/17
f 33/40/1 31/42/1 27/43/1
f 28/45/13 32/39/13 34/36/13
f 55/47/2 35/170/2 45/48/2
f 59/50/3 57/71/3 58/51/3
f 55/47/19 62/49/19 61/55/19
f 59/50/4 61/55/4 43/57/4
f 60/52/4 42/69/4 44/58/4
f 36/59/18 54/68/18 63/60/18
f 55/62/5 56/56/5 37/63/5
f 65/65/10 67/54/10 41/53/10
f 38/67/9 40/70/9 58/51/9
f 43/57/6 61/55/6 62/49/6
f 44/58/6 46/61/6 63/60/6
f 56/56/20 61/55/20 63/60/20
f 42/69/3 60/52/3 58/51/3
f 54/72/5 36/171/5 38/67/5
f 65/65/9 39/66/9 37/63/9
f 30/38/6 29/37/6 27/75/6
f 70/79/9 51/83/9 52/81/9
f 50/86/16 53/82/16 52/81/16
f 48/88/6 50/86/6 49/87/6
f 47/90/17 51/83/17 68/85/17
f 52/81/1 51/83/1 47/93/1
f 78/95/17 77/99/17 73/96/17
f 76/98/6 75/101/6 77/99/6
f 72/100/16 71/172/16 75/101/16
f 75/101/1 71/173/1 73/102/1
f 74/103/13 72/174/13 76/98/13
f 92/104/10 79/175/10 89/105/10
f 96/107/2 94/127/2 95/108/2
f 96/107/5 98/115/5 87/113/5
f 97/109/5 86/125/5 88/114/5
f 90/116/10 80/176/10 91/117/10
f 92/119/4 93/112/4 81/120/4
f 101/122/18 103/111/18 85/110/18
f 82/124/6 84/126/6 95/108/6
f 87/113/9 98/115/9 99/106/9
f 90/116/9 99/118/9 98/115/9
f 86/125/18 97/109/18 95/108/18
f 91/128/4 80/177/4 82/124/4
f 101/122/6 83/123/6 81/120/6
f 74/97/9 73/96/9 71/131/9
f 80/133/36 86/137/36 84/134/36
f 80/133/37 90/178/37 88/136/37
f 105/138/1 109/160/1 107/139/1
f 115/144/29 113/150/29 118/143/29
f 118/143/16 111/151/16 112/145/16
f 115/144/38 116/142/38 119/146/38
f 114/148/31 121/152/31 122/149/31
f 113/150/39 122/149/39 111/151/39
f 117/141/33 112/145/33 119/146/33
f 114/148/17 115/144/17 120/147/17
f 106/159/9 110/155/9 109/160/9
f 105/161/16 104/166/16 124/162/16
f 123/156/6 104/163/6 107/139/6
f 110/155/17 108/154/17 107/139/17
